<?xml version="1.0" standalone="no"?>
<!DOCTYPE svg PUBLIC "-//W3C//DTD SVG 20010904//EN"
 "http://www.w3.org/TR/2001/REC-SVG-20010904/DTD/svg10.dtd">
<svg version="1.0" xmlns="http://www.w3.org/2000/svg"
 width="128.000000pt" height="128.000000pt" viewBox="0 0 128.000000 128.000000"
 preserveAspectRatio="xMidYMid meet">

<g transform="translate(0.000000,128.000000) scale(0.100000,-0.100000)"
fill="#000000" stroke="none">
<path d="M560 1250 c-12 -22 -36 -27 -43 -7 -3 7 -6 5 -6 -5 -1 -10 -5 -18
-11 -18 -5 0 -7 8 -4 18 5 14 3 13 -10 -3 -30 -39 -61 -65 -78 -65 -10 0 -15
-5 -12 -13 3 -8 -10 -20 -32 -30 -22 -11 -34 -23 -31 -31 4 -9 0 -12 -13 -9
-16 4 -22 -5 -36 -53 -9 -33 -19 -66 -22 -74 -5 -12 -3 -13 10 -3 13 11 15 9
16 -17 0 -19 -3 -28 -10 -24 -11 7 -10 -6 8 -126 4 -27 15 -52 28 -63 11 -10
15 -16 8 -12 -10 5 -13 0 -10 -21 2 -17 8 -28 16 -26 6 1 12 -7 12 -19 0 -11
9 -32 20 -46 22 -28 27 -63 8 -63 -6 0 -9 -3 -5 -6 11 -12 -32 -82 -70 -113
-40 -33 -31 -42 15 -15 22 13 21 10 -8 -15 -30 -27 -32 -31 -13 -31 11 0 32
12 47 26 20 21 26 23 26 10 0 -9 -9 -21 -20 -28 -11 -7 -20 -16 -20 -21 0 -4
5 -5 10 -2 6 3 15 3 21 -1 7 -4 0 -18 -19 -38 -16 -17 -41 -47 -55 -66 -19
-26 -55 -50 -134 -88 -59 -29 -115 -56 -123 -61 -9 -5 -16 -26 -18 -50 l-3
-41 238 2 c152 1 216 4 178 8 -58 7 -57 7 15 4 41 -1 91 -5 110 -7 54 -7 209
12 239 29 15 9 18 13 6 9 -108 -34 -198 -26 -279 26 -63 40 -74 68 -68 187 4
103 7 116 18 86 4 -10 22 -36 41 -57 18 -20 33 -41 33 -46 0 -5 8 -12 19 -16
10 -3 31 -17 47 -30 22 -19 28 -32 26 -55 -3 -25 0 -30 17 -30 18 0 21 5 17
27 -3 15 0 33 5 40 6 7 9 23 6 35 -5 18 0 26 20 36 15 6 33 12 40 12 14 0 47
25 72 54 9 10 26 30 38 45 l22 26 1 -68 c0 -74 -14 -115 -56 -162 -14 -16 -23
-24 -19 -16 6 9 4 12 -4 7 -14 -9 -5 -26 15 -26 35 0 9 -34 -46 -59 -25 -11
-38 -21 -30 -21 17 0 97 35 120 53 9 7 3 0 -14 -15 -35 -32 -21 -38 17 -8 14
11 29 20 34 20 4 0 0 -5 -10 -11 -9 -6 -15 -14 -12 -18 2 -5 -10 -12 -28 -16
l-32 -8 30 -7 c33 -8 36 -7 -53 -15 -18 -1 -35 -5 -38 -8 -3 -3 119 -6 271 -6
l276 -1 -3 87 -3 88 -35 12 c-190 64 -267 95 -282 113 -17 21 -23 104 -7 94
14 -9 10 6 -6 22 -8 9 -15 31 -15 50 l0 35 33 -17 32 -16 -27 29 c-16 16 -28
37 -28 46 0 9 -7 17 -15 17 -10 0 -15 -10 -15 -29 0 -53 -38 -121 -68 -121
-10 0 -45 -47 -55 -72 -3 -10 -15 -18 -25 -18 -10 0 -23 -5 -29 -11 -9 -9 -20
-9 -43 1 -20 8 -34 10 -38 4 -4 -6 -23 -7 -48 -2 -30 6 -45 16 -55 36 -17 33
-34 52 -48 52 -5 0 -14 8 -20 17 -5 10 -13 15 -17 11 -15 -15 -53 56 -69 130
-17 73 -19 116 -16 331 1 77 6 101 22 128 33 53 55 63 114 52 68 -13 132 -9
178 11 106 47 204 -30 214 -170 2 -30 7 -108 10 -172 5 -95 8 -114 19 -104 7
7 15 26 17 42 2 16 4 5 2 -24 -1 -31 2 -48 7 -40 16 26 46 134 53 196 7 61 17
70 29 27 3 -11 2 0 -1 25 -3 25 -18 65 -34 89 -16 25 -29 48 -29 52 0 5 -8 6
-17 3 -15 -5 -16 -4 -3 5 9 7 11 14 5 19 -5 4 -10 13 -11 20 -3 37 -5 42 -16
39 -7 -1 -14 10 -16 24 -2 21 -15 32 -60 54 -31 16 -66 28 -77 27 -10 0 -25 4
-32 10 -9 7 -13 7 -13 -2 0 -6 -19 2 -42 19 -23 17 -50 31 -61 31 -10 0 -15 5
-12 10 4 6 -6 10 -24 10 -20 0 -34 -7 -41 -20z m-230 -205 c0 -1 -7 -8 -15
-15 -13 -10 -15 -9 -15 8 0 15 5 20 15 16 8 -4 15 -7 15 -9z m650 -303 c0 -13
-12 -22 -22 -16 -10 6 -1 24 13 24 5 0 9 -4 9 -8z m-593 -334 c-3 -8 -6 -5 -6
6 -1 11 2 17 5 13 3 -3 4 -12 1 -19z m178 -380 c28 -9 41 -17 30 -17 -29 -1
-106 36 -139 67 -16 15 -27 20 -24 13 2 -8 26 -30 52 -48 27 -18 45 -33 42
-33 -16 0 -63 31 -90 58 -17 19 -35 28 -45 25 -12 -4 -13 -2 -3 4 7 6 10 17 6
28 -6 14 -4 16 6 10 9 -6 12 -4 8 7 -3 8 19 -11 51 -42 39 -39 71 -61 106 -72z
m285 98 c0 -2 -8 -10 -17 -17 -16 -13 -17 -12 -4 4 13 16 21 21 21 13z m-435
-56 c4 -6 -6 -10 -22 -10 -22 0 -25 2 -13 10 19 12 27 12 35 0z m30 -29 c3 -6
-10 -7 -32 -4 -50 8 -55 13 -10 13 20 0 38 -4 42 -9z"/>
<path d="M410 121 c0 -5 5 -13 10 -16 6 -3 10 -2 10 4 0 5 -4 13 -10 16 -5 3
-10 2 -10 -4z"/>
<path d="M1 1013 c-1 -170 1 -202 13 -197 11 4 13 19 9 64 -6 57 -5 61 28 90
26 26 30 33 18 41 -8 5 -19 9 -24 9 -12 0 -40 114 -31 128 3 5 1 22 -4 38 -5
19 -9 -41 -9 -173z"/>
<path d="M75 1170 c-19 -7 -19 -7 0 -17 11 -6 29 -7 40 -3 19 7 19 7 0 17 -11
6 -29 7 -40 3z"/>
<path d="M708 828 c-28 -10 -38 -28 -17 -28 6 0 8 -7 5 -17 -4 -9 1 -23 13
-34 24 -22 71 -36 71 -20 0 6 18 14 40 17 38 6 53 31 17 28 -9 -1 -14 2 -11 7
3 5 -5 13 -17 17 l-23 9 25 6 c20 6 21 9 9 17 -19 12 -77 12 -112 -2z m102
-68 c0 -5 -5 -10 -11 -10 -5 0 -7 5 -4 10 3 6 8 10 11 10 2 0 4 -4 4 -10z"/>
<path d="M433 818 c-13 -6 -23 -20 -23 -32 0 -15 3 -17 12 -8 7 7 20 12 30 12
17 0 17 -1 -2 -20 -29 -29 -25 -36 23 -45 93 -16 131 -1 139 56 4 25 0 32 -19
40 -33 12 -133 10 -160 -3z"/>
<path d="M585 601 c-3 -5 -1 -12 5 -16 16 -10 -6 -42 -34 -49 -36 -9 -56 -33
-56 -68 0 -25 3 -29 18 -23 9 5 44 10 77 12 33 2 81 8 107 14 26 6 61 8 78 4
29 -6 31 -5 28 16 -5 34 -101 87 -148 82 -30 -3 -32 -2 -12 6 12 6 22 15 22
21 0 13 -77 13 -85 1z m107 -87 c5 -3 6 -9 3 -14 -6 -9 -65 10 -65 22 0 7 47
1 62 -8z m63 5 c10 -14 1 -21 -19 -13 -9 3 -13 10 -10 15 7 12 21 11 29 -2z"/>
<path d="M680 606 c0 -9 30 -14 35 -6 4 6 -3 10 -14 10 -12 0 -21 -2 -21 -4z"/>
<path d="M592 403 c3 -27 6 -28 55 -28 58 1 72 8 58 31 -7 10 -30 17 -63 20
-53 4 -53 4 -50 -23z"/>
</g>
</svg>
