<svg xmlns="http://www.w3.org/2000/svg" width="170.667" height="170.667" viewBox="0 0 128 128" preserveAspectRatio="xMidYMid meet" xmlns:v="https://vecta.io/nano"><path d="M56 3c-1.2 2.2-3.6 2.7-4.3.7-.3-.7-.6-.5-.6.5C51 5.2 50.6 6 50 6c-.5 0-.7-.8-.4-1.8.5-1.4.3-1.3-1 .3-3 3.9-6.1 6.5-7.8 6.5-1 0-1.5.5-1.2 1.3s-1 2-3.2 3c-2.2 1.1-3.4 2.3-3.1 3.1.4.9 0 1.2-1.3.9-1.6-.4-2.2.5-3.6 5.3-.9 3.3-1.9 6.6-2.2 7.4-.5 1.2-.3 1.3 1 .3 1.3-1.1 1.5-.9 1.6 1.7 0 1.9-.3 2.8-1 2.4-1.1-.7-1 .6.8 12.6.4 2.7 1.5 5.2 2.8 6.3 1.1 1 1.5 1.6.8 1.2-1-.5-1.3 0-1 2.1.2 1.7.8 2.8 1.6 2.6.6-.1 1.2.7 1.2 1.9 0 1.1.9 3.2 2 4.6 2.2 2.8 2.7 6.3.8 6.3-.6 0-.9.3-.5.6 1.1 1.2-3.2 8.2-7 11.3-4 3.3-3.1 4.2 1.5 1.5 2.2-1.3 2.1-1-.8 1.5-3 2.7-3.2 3.1-1.3 3.1 1.1 0 3.2-1.2 4.7-2.6 2-2.1 2.6-2.3 2.6-1 0 .9-.9 2.1-2 2.8s-2 1.6-2 2.1c0 .4.5.5 1 .2.6-.3 1.5-.3 2.1.1.7.4 0 1.8-1.9 3.8a87.4 87.4 0 0 0-5.5 6.6c-1.9 2.6-5.5 5-13.4 8.8L2 118.9c-.9.5-1.6 2.6-1.8 5l-.3 4.1 23.8-.2c15.2-.1 21.6-.4 17.8-.8-5.8-.7-5.7-.7 1.5-.4 4.1.1 9.1.5 11 .7 5.4.7 20.9-1.2 23.9-2.9 1.5-.9 1.8-1.3.6-.9-10.8 3.4-19.8 2.6-27.9-2.6-6.3-4-7.4-6.8-6.8-18.7.4-10.3.7-11.6 1.8-8.6.4 1 2.2 3.6 4.1 5.7 1.8 2 3.3 4.1 3.3 4.6s.8 1.2 1.9 1.6c1 .3 3.1 1.7 4.7 3 2.2 1.9 2.8 3.2 2.6 5.5-.3 2.5 0 3 1.7 3 1.8 0 2.1-.5 1.7-2.7-.3-1.5 0-3.3.5-4 .6-.7.9-2.3.6-3.5-.5-1.8 0-2.6 2-3.6 1.5-.6 3.3-1.2 4-1.2 1.4 0 4.7-2.5 7.2-5.4.9-1 2.6-3 3.8-4.5l2.2-2.6.1 6.8c0 7.4-1.4 11.5-5.6 16.2-1.4 1.6-2.3 2.4-1.9 1.6.6-.9.4-1.2-.4-.7-1.4.9-.5 2.6 1.5 2.6 3.5 0 .9 3.4-4.6 5.9-2.5 1.1-3.8 2.1-3 2.1 1.7 0 9.7-3.5 12-5.3.9-.7.3 0-1.4 1.5-3.5 3.2-2.1 3.8 1.7.8 1.4-1.1 2.9-2 3.4-2 .4 0 0 .5-1 1.1-.9.6-1.5 1.4-1.2 1.8.2.5-1 1.2-2.8 1.6l-3.2.8 3 .7c3.3.8 3.6.7-5.3 1.5-1.8.1-3.5.5-3.8.8s11.9.6 27.1.6l27.6.1-.3-8.7-.3-8.8-3.5-1.2c-19-6.4-26.7-9.5-28.2-11.3-1.7-2.1-2.3-10.4-.7-9.4 1.4.9 1-.6-.6-2.2-.8-.9-1.5-3.1-1.5-5v-3.5l3.3 1.7 3.2 1.6-2.7-2.9c-1.6-1.6-2.8-3.7-2.8-4.6s-.7-1.7-1.5-1.7c-1 0-1.5 1-1.5 2.9 0 5.3-3.8 12.1-6.8 12.1-1 0-4.5 4.7-5.5 7.2-.3 1-1.5 1.8-2.5 1.8s-2.3.5-2.9 1.1c-.9.9-2 .9-4.3-.1-2-.8-3.4-1-3.8-.4s-2.3.7-4.8.2c-3-.6-4.5-1.6-5.5-3.6-1.7-3.3-3.4-5.2-4.8-5.2-.5 0-1.4-.8-2-1.7-.5-1-1.3-1.5-1.7-1.1-1.5 1.5-5.3-5.6-6.9-13-1.7-7.3-1.9-11.6-1.6-33.1.1-7.7.6-10.1 2.2-12.8 3.3-5.3 5.5-6.3 11.4-5.2 6.8 1.3 13.2.9 17.8-1.1 10.6-4.7 20.4 3 21.4 17l1 17.2c.5 9.5.8 11.4 1.9 10.4.7-.7 1.5-2.6 1.7-4.2s.4-.5.2 2.4c-.1 3.1.2 4.8.7 4 1.6-2.6 4.6-13.4 5.3-19.6.7-6.1 1.7-7 2.9-2.7.3 1.1.2 0-.1-2.5s-1.8-6.5-3.4-8.9c-1.6-2.5-2.9-4.8-2.9-5.2 0-.5-.8-.6-1.7-.3-1.5.5-1.6.4-.3-.5.9-.7 1.1-1.4.5-1.9-.5-.4-1-1.3-1.1-2-.3-3.7-.5-4.2-1.6-3.9-.7.1-1.4-1-1.6-2.4-.2-2.1-1.5-3.2-6-5.4-3.1-1.6-6.6-2.8-7.7-2.7-1 0-2.5-.4-3.2-1-.9-.7-1.3-.7-1.3.2 0 .6-1.9-.2-4.2-1.9S64.8 3 63.7 3c-1 0-1.5-.5-1.2-1 .4-.6-.6-1-2.4-1-2 0-3.4.7-4.1 2zM33 23.5c0 .1-.7.8-1.5 1.5-1.3 1-1.5.9-1.5-.8 0-1.5.5-2 1.5-1.6.8.4 1.5.7 1.5.9zm65 30.3c0 1.3-1.2 2.2-2.2 1.6s-.1-2.4 1.3-2.4c.5 0 .9.4.9.8zM38.7 87.2c-.3.8-.6.5-.6-.6-.1-1.1.2-1.7.5-1.3.3.3.4 1.2.1 1.9zm17.8 38c2.8.9 4.1 1.7 3 1.7-2.9.1-10.6-3.6-13.9-6.7-1.6-1.5-2.7-2-2.4-1.3.2.8 2.6 3 5.2 4.8 2.7 1.8 4.5 3.3 4.2 3.3-1.6 0-6.3-3.1-9-5.8-1.7-1.9-3.5-2.8-4.5-2.5-1.2.4-1.3.2-.3-.4.7-.6 1-1.7.6-2.8-.6-1.4-.4-1.6.6-1 .9.6 1.2.4.8-.7-.3-.8 1.9 1.1 5.1 4.2 3.9 3.9 7.1 6.1 10.6 7.2zm28.5-9.8c0 .2-.8 1-1.7 1.7-1.6 1.3-1.7 1.2-.4-.4s2.1-2.1 2.1-1.3zM41.5 121c.4.6-.6 1-2.2 1-2.2 0-2.5-.2-1.3-1 1.9-1.2 2.7-1.2 3.5 0zm3 2.9c.3.6-1 .7-3.2.4-5-.8-5.5-1.3-1-1.3 2 0 3.8.4 4.2.9zm-3.5-8c0 .5.5 1.3 1 1.6.6.3 1 .2 1-.4 0-.5-.4-1.3-1-1.6-.5-.3-1-.2-1 .4zM.1 26.7C0 43.7.2 46.9 1.4 46.4c1.1-.4 1.3-1.9.9-6.4-.6-5.7-.5-6.1 2.8-9 2.6-2.6 3-3.3 1.8-4.1-.8-.5-1.9-.9-2.4-.9-1.2 0-4-11.4-3.1-12.8.3-.5.1-2.2-.4-3.8C.5 7.5.1 13.5.1 26.7zM7.5 11c-1.9.7-1.9.7 0 1.7 1.1.6 2.9.7 4 .3 1.9-.7 1.9-.7 0-1.7-1.1-.6-2.9-.7-4-.3z"/><path d="M70.8 45.2C68 46.2 67 48 69.1 48c.6 0 .8.7.5 1.7-.4.9.1 2.3 1.3 3.4 2.4 2.2 7.1 3.6 7.1 2 0-.6 1.8-1.4 4-1.7 3.8-.6 5.3-3.1 1.7-2.8-.9.1-1.4-.2-1.1-.7s-.5-1.3-1.7-1.7l-2.3-.9 2.5-.6c2-.6 2.1-.9.9-1.7-1.9-1.2-7.7-1.2-11.2.2zM81 52c0 .5-.5 1-1.1 1-.5 0-.7-.5-.4-1 .3-.6.8-1 1.1-1 .2 0 .4.4.4 1zm-37.7-5.8c-1.3.6-2.3 2-2.3 3.2 0 1.5.3 1.7 1.2.8.7-.7 2-1.2 3-1.2 1.7 0 1.7.1-.2 2-2.9 2.9-2.5 3.6 2.3 4.5 9.3 1.6 13.1.1 13.9-5.6.4-2.5 0-3.2-1.9-4-3.3-1.2-13.3-1-16 .3zm15.2 21.7c-.3.5-.1 1.2.5 1.6 1.6 1-.6 4.2-3.4 4.9-3.6.9-5.6 3.3-5.6 6.8 0 2.5.3 2.9 1.8 2.3.9-.5 4.4-1 7.7-1.2s8.1-.8 10.7-1.4 6.1-.8 7.8-.4c2.9.6 3.1.5 2.8-1.6-.5-3.4-10.1-8.7-14.8-8.2-3 .3-3.2.2-1.2-.6C66 69.5 67 68.6 67 68c0-1.3-7.7-1.3-8.5-.1zm10.7 8.7c.5.3.6.9.3 1.4-.6.9-6.5-1-6.5-2.2 0-.7 4.7-.1 6.2.8zm6.3-.5c1 1.4.1 2.1-1.9 1.3-.9-.3-1.3-1-1-1.5.7-1.2 2.1-1.1 2.9.2zM68 67.4c0 .9 3 1.4 3.5.6.4-.6-.3-1-1.4-1-1.2 0-2.1.2-2.1.4zm-8.8 20.3c.3 2.7.6 2.8 5.5 2.8 5.8-.1 7.2-.8 5.8-3.1-.7-1-3-1.7-6.3-2-5.3-.4-5.3-.4-5 2.3z"/></svg>